<svg viewBox="0 0 512 168" xmlns="http://www.w3.org/2000/svg" fill-rule="evenodd" clip-rule="evenodd" stroke-linejoin="round" stroke-miterlimit="2"><path d="M379.125 50.593h17.318V124.6c0 30.711-18.128 43.357-39.558 43.357-20.183 0-32.331-13.58-36.878-24.606l15.885-6.604c2.865 6.791 9.78 14.827 20.993 14.827 13.767 0 22.24-8.535 22.24-24.482v-5.981h-.623c-4.112 4.984-11.961 9.469-21.928 9.469-20.807 0-39.869-18.128-39.869-41.488 0-23.486 19.062-41.8 39.869-41.8 9.905 0 17.816 4.423 21.928 9.282h.623v-5.981zm116.927 52.079l14.204 9.469c-4.61 6.79-15.636 18.439-34.699 18.439-23.672 0-41.301-18.314-41.301-41.613 0-24.793 17.816-41.613 39.308-41.613 21.616 0 32.206 17.193 35.633 26.475l1.869 4.735-55.692 23.049c4.236 8.348 10.839 12.584 20.183 12.584 9.345 0 15.823-4.61 20.495-11.525zM309.105 88.967c0 23.984-18.689 41.613-41.613 41.613-22.925 0-41.613-17.629-41.613-41.613 0-24.108 18.688-41.613 41.613-41.613 22.924 0 41.613 17.443 41.613 41.613zm-90.889-.187c0 23.984-18.688 41.613-41.613 41.613-22.924 0-41.613-17.691-41.613-41.613 0-24.108 18.689-41.675 41.613-41.675 22.925 0 41.613 17.567 41.613 41.675zM66.59 112.328c-26.102 0-46.534-21.056-46.534-47.158 0-26.101 20.432-47.157 46.534-47.157 14.079 0 24.357 5.544 31.957 12.646l12.522-12.521C100.479 7.984 86.338.259 66.59.259 30.833.259.744 29.413.744 65.17c0 35.758 30.089 64.912 65.846 64.912 19.312 0 33.889-6.354 45.289-18.19 11.711-11.712 15.324-28.158 15.324-41.489 0-4.174-.498-8.472-1.059-11.649H66.59v17.318h42.423c-1.246 10.839-4.672 18.253-9.718 23.298-6.105 6.168-15.761 12.958-32.705 12.958zM407.407 4.931h17.941V126.78h-17.941V4.931zM290.852 88.967c0-14.951-10.839-25.229-23.423-25.229-12.583 0-23.423 10.278-23.423 25.229 0 14.826 10.84 25.23 23.423 25.23 12.646 0 23.423-10.466 23.423-25.23zm89.518.125c0-14.702-9.78-25.417-22.239-25.417-12.584 0-23.174 10.715-23.174 25.417 0 14.514 10.59 25.042 23.174 25.042 12.459.063 22.239-10.528 22.239-25.042zm-180.344-.312c0-14.951-10.839-25.229-23.423-25.229-12.583 0-23.423 10.278-23.423 25.229 0 14.826 10.84 25.23 23.423 25.23 12.584 0 23.423-10.404 23.423-25.23zm252.358-1.121l37.19-15.449c-2.056-5.171-8.161-8.846-15.449-8.846-9.282 0-22.177 8.223-21.741 24.295z" fill-rule="nonzero"/></svg>