<svg viewBox="0 0 512 126" xmlns="http://www.w3.org/2000/svg" fill-rule="evenodd" clip-rule="evenodd" stroke-linejoin="round" stroke-miterlimit="2"><path d="M156.434 50.322c5.859 0 10.609-4.752 10.609-10.613 0-5.862-4.75-10.613-10.609-10.613-5.861 0-10.611 4.751-10.611 10.613 0 5.861 4.75 10.613 10.611 10.613zm350.16 36.261c-1.614-1.135-2.861-1.323-3.894.881-17.82 38.596-47.851 19.336-44.867 21.031 6.661-3.047 24.18-17.097 21.532-36.497-1.608-11.856-11.784-17.115-22.585-15.232-18.854 3.287-25.79 23.623-22.259 41.627.618 3.092 1.722 5.642 2.825 8.14-21.306 17.326-29.767-15.511-30.727-19.434-.038-.21 16.451-13.954 21.037-46.705 4.807-34.325-6.143-40.575-17.341-40.38-20.72.361-26.318 43.652-18.796 79.732-.63.164-3.562 1.788-8.273 1.969-3.39-10.666-17.875-20.016-21.666-16.413-9.488 9.013 2.301 26.634 10.596 28.016-4.983 30.691-36.146 23.089-30.345-15.361 10.148-18.845 17.866-46.866 16.489-63.782-.488-5.989-4.916-14.013-14.931-13.616-19.26.762-21.354 44.065-19.096 74.799-.112-.757-1.184 3.734-9.077 5.967-1.867-10.363-18.553-20.765-22.481-15.764-7.353 9.36 5.389 26.049 11.426 27.213-4.983 30.691-36.145 23.089-30.344-15.362 10.148-18.844 17.865-46.865 16.488-63.781-.488-5.989-4.915-14.014-14.931-13.617-19.26.763-21.354 44.066-19.096 74.799-.113-.768-1.21 3.87-9.425 6.067-.275-13.445-17.022-19.609-21.045-15.319-7.17 7.646 1.642 23.336 9.794 27.213-4.983 30.691-36.145 23.089-30.344-15.362 10.148-18.844 17.866-46.865 16.488-63.781-.487-5.989-4.915-14.014-14.93-13.617-19.261.763-20.81 46.243-18.552 76.976-6.344 27.181-27.619 61.125-24.855-6.872.273-4.769.571-6.581-1.807-8.367-1.782-1.388-5.834-.721-8.049-.665-2.692.108-3.367 1.683-3.962 4.064-1.386 6.148-1.635 12.108-1.833 20.24-.13 3.804-.435 5.579-1.899 10.766-1.464 5.186-9.81 14.665-14.381 13.081-6.339-2.182-4.261-20.079-3.072-32.376.99-9.718-2.179-14.082-10.302-15.669-4.755-.991-7.644-.839-12.596-2.4-4.683-1.476-5.742-10.334-15.729-7.382-5.464 1.616-1.952 13.191-3.265 21.771-6.455 42.2-19.886 43.359-26.117 22.859C88.46 27.31 68.515.214 56.841.214c-12.16 0-26.06 8.376-20.174 61.968-2.862-.835-3.742-1.285-6.875-1.285C12.073 60.897 0 75.221 0 92.891s12.073 31.995 29.792 31.995c10.461 0 17.804-4.757 23.366-12.116 3.629 5.197 8.048 12.196 16.129 11.881 24.087-.938 31.092-50.347 31.919-53.103 2.575.397 5.011 1.148 7.389 1.545 3.962.595 4.249 2.163 4.16 6.148-1.049 33.604 5.151 45.369 19.217 45.369 7.837 0 14.822-7.699 19.634-13.205 3.594 7.418 9.321 12.979 17.004 13.205 18.617.463 25.745-29.209 25.095-25.305-.51 3.064 6.04 25.138 25.206 25.218 23.741.1 28.154-26.008 28.681-30.381.065-.871.094-.779 0 0-.006.081-.013.167-.019.265 7.537-1.402 11.426-5.443 11.426-5.443s6.052 35.965 28.471 35.559c23.278-.421 27.668-24.021 28.245-28.623.076-1.092.121-.964 0 0l-.009.135c8.953-3.257 11.308-6.526 11.308-6.526s4.81 35.25 28.47 35.558c21.084.276 28.898-21.315 28.944-30.352 3.556.038 10.134-2.109 9.979-2.232 0 0 7.724 30.82 29.29 32.403 10.127.743 17.723-5.698 22.053-8.636 10.176 8.241 44.061 18.767 65.457-17.508 3.019-5.206-3.473-11.356-4.613-12.159zM28.937 112.919c-10.338 0-16.967-9.559-16.967-19.866 0-10.306 6.085-19.865 16.423-19.865 4.652 0 7.239.512 10.863 3.663.657 2.589 2.519 8.561 3.425 11.273 1.214 3.629 2.658 6.718 4.114 10.08-2.081 8.623-8.899 14.715-17.858 14.715zm25.192-35.765c-.43-.685-.341-.264-.821-.911-1.895-5.155-5.547-16.661-5.97-29.731-.478-14.783 1.986-32.112 9.25-32.112 4.922 0 10.153 35.12-2.459 62.754zM199.69 61.751c-1.166-8.773-1.227-47.883 8.162-46.806 5.184 2.1-3.287 39.005-8.162 46.806zm68.559 0c-1.166-8.773-1.227-47.883 8.162-46.806 5.184 2.1-3.287 39.005-8.162 46.806zm68.015.545c-1.167-8.774-1.227-47.884 8.161-46.807 5.184 2.1-3.287 39.006-8.161 46.807zm75.088-49.641c8.584-.889 8.23 36.597-9 60.263-2.222-8.554-5.629-57.325 9-60.263zm36.081 80.663c-2.758-13.927 4.366-23.074 11.71-24.077 2.567-.41 6.287 1.253 7.029 4.362 1.22 5.859-.177 14.549-16.614 25.577.024.094-1.511-2.761-2.125-5.862z" fill-rule="nonzero"/></svg>