<svg viewBox="0 0 1499 297" xmlns="http://www.w3.org/2000/svg" fill-rule="evenodd" clip-rule="evenodd" stroke-linejoin="round" stroke-miterlimit="2"><path d="M771.734 144.098c-12.377 0-21.3 4.059-30.347 8.194v93.567c8.666.826 13.633.826 21.855.826 29.709 0 33.782-13.606 33.782-32.602v-44.689c0-14.029-4.656-25.296-25.29-25.296zm-197.306-5.107c-20.613 0-25.317 11.316-25.317 25.331v7.875h50.606v-7.875c0-14.015-4.704-25.331-25.289-25.331zm-382.221 97.391c0 11.087 5.231 16.846 16.776 16.846 12.385 0 19.718-4.038 28.759-8.187v-22.195h-27.08c-12.821 0-18.455 2.386-18.455 13.536zm771.457-92.284c-20.648 0-27.801 11.267-27.801 25.296v51.197c0 14.063 7.153 25.365 27.801 25.365 20.592 0 27.801-11.302 27.801-25.365v-51.197c-.007-14.029-7.216-25.296-27.801-25.296zM91.021 293.788H30.327V146.88H0V96.26h30.333V65.857C30.333 24.554 47.45 0 96.1 0h40.505v50.634h-25.318c-18.941 0-20.189 7.077-20.189 20.281l-.077 25.338h45.861l-5.363 50.62H91.021v146.915zm207.429.381h-50.586l-2.185-12.793c-23.097 12.793-43.71 14.868-57.309 14.868-37.098 0-56.844-24.783-56.844-59.057 0-40.436 23.041-54.867 64.261-54.867h41.955v-8.742c0-20.641-2.366-26.698-34.108-26.698h-51.897l5.072-50.62h56.726c69.644 0 84.915 22 84.915 77.727v120.182zm172.017-143.577c-31.478-5.398-40.518-6.584-55.664-6.584-27.205 0-35.426 6.001-35.426 29.105v43.703c0 23.104 8.221 29.133 35.426 29.133 15.146 0 24.186-1.207 55.664-6.625v49.378c-27.572 6.182-45.535 7.806-60.715 7.806-65.163 0-91.063-34.268-91.063-83.771v-35.461c0-49.545 25.9-83.875 91.063-83.875 15.18 0 33.143 1.63 60.715 7.84v49.351zm189.938 62.145H549.104v4.079c0 23.104 8.228 29.133 35.426 29.133 24.45 0 39.374-1.207 70.796-6.625v49.378c-30.305 6.182-46.096 7.806-75.826 7.806-65.17 0-91.084-34.268-91.084-83.771V172.19c0-43.314 19.226-78.789 86.005-78.789s85.984 35.065 85.984 78.789v40.547zm197.3.936c0 47.846-13.675 82.744-96.517 82.744-29.917 0-47.463-2.629-80.482-7.708V15.208L741.38 5.086v95.669c13.113-4.87 30.084-7.347 45.528-7.347 60.681 0 70.79 27.204 70.79 70.921v49.344h.007zm194.496 1.041c0 41.275-17.04 81.308-88.336 81.308-71.331 0-88.69-40.033-88.69-81.308v-39.853c0-41.295 17.359-81.335 88.69-81.335 71.296 0 88.336 40.04 88.336 81.335v39.853zm194.365 0c0 41.275-17.061 81.308-88.344 81.308-71.33 0-88.69-40.033-88.69-81.308v-39.853c0-41.295 17.36-81.335 88.69-81.335 71.283 0 88.344 40.04 88.344 81.335v39.853zm199.464 79.074h-65.767l-55.623-92.853v92.853h-60.694V15.201l60.694-10.122v179.343l55.623-88.162h65.767l-60.723 96.21 60.723 101.318zm-288.016-149.69c-20.613 0-27.766 11.267-27.766 25.296v51.197c0 14.063 7.153 25.365 27.766 25.365 20.586 0 27.871-11.302 27.871-25.365v-51.197c0-14.029-7.285-25.296-27.871-25.296zm322.658 115.041c10.219 0 18.358 8.333 18.358 18.74 0 10.566-8.145 18.809-18.435 18.809-10.24 0-18.545-8.243-18.545-18.809 0-10.407 8.305-18.74 18.545-18.74h.077zm-.077 2.914c-8.235 0-14.972 7.084-14.972 15.826 0 8.901 6.744 15.895 15.049 15.895 8.312.083 14.951-6.994 14.951-15.812s-6.639-15.909-14.951-15.909h-.077zm-3.483 26.732h-3.337v-20.911c1.749-.243 3.414-.486 5.911-.486 3.164 0 5.232.666 6.501 1.575 1.228.923 1.888 2.331 1.888 4.323 0 2.761-1.818 4.419-4.059 5.092v.16c1.825.34 3.066 1.991 3.49 5.065.485 3.254.992 4.496 1.318 5.176h-3.49c-.493-.68-.999-2.588-1.415-5.343-.486-2.657-1.832-3.656-4.496-3.656h-2.311v9.005zm-.007-11.572h2.415c2.734 0 5.058-1.006 5.058-3.594 0-1.832-1.318-3.657-5.058-3.657a17.29 17.29 0 00-2.415.16v7.091z" fill-rule="nonzero"/></svg>