<svg viewBox="0 0 714 143" xmlns="http://www.w3.org/2000/svg" fill-rule="evenodd" clip-rule="evenodd" stroke-linejoin="round" stroke-miterlimit="2"><path d="M621.428 92.553c0-27.816 22.286-50.36 50.099-50.36h25.177c9.126.121 16.567 7.662 16.567 16.788 0 9.126-7.441 16.667-16.567 16.788h-25.183c-9.208 0-16.786 7.576-16.789 16.784l.276 33.579c-.002 9.21-7.581 16.787-16.79 16.787h-.006c-9.204-.002-16.778-7.576-16.778-16.781l-.006-33.585zm-562.79 50.366C26.249 142.919 0 116.664 0 84.281L.187 17.01C.358 7.92 7.882.536 16.974.536c9.091 0 16.615 7.384 16.786 16.474v25.18h41.973c9.126.121 16.567 7.662 16.567 16.788 0 9.126-7.441 16.667-16.567 16.788h-41.97v8.462c0 13.778 11.338 25.115 25.115 25.115h25.248c9.209 0 16.787 7.577 16.787 16.786 0 9.209-7.578 16.787-16.787 16.787l-25.488.003zm331.55 0c-32.38 0-58.441-26.255-58.441-58.638V17.01a16.579 16.579 0 01-.002-.223C331.745 7.578 339.323 0 348.532 0s16.786 7.578 16.786 16.787l-.001.223v25.18h25.174l.223-.002c9.211 0 16.79 7.58 16.79 16.79 0 9.211-7.579 16.79-16.79 16.79l-.223-.002h-25.174v8.465c0 13.775 11.334 25.11 25.109 25.112h8.467c9.267 0 16.781 7.514 16.781 16.786 0 9.273-7.514 16.787-16.781 16.787l-8.705.003zm88.135 0c-32.386 0-58.448-26.255-58.448-58.638V17.01c0-9.209 7.578-16.787 16.787-16.787s16.787 7.578 16.787 16.787v25.18h25.174c9.209 0 16.788 7.578 16.788 16.788s-7.579 16.788-16.788 16.788h-25.174v8.465c0 13.776 11.335 25.112 25.111 25.112h8.471c9.209 0 16.787 7.577 16.787 16.786 0 9.209-7.578 16.787-16.787 16.787l-8.708.003zm130.413-58.756c0 5.869-2.461 16.736-11.217 16.736l-55.419-.003c1.89 7.412 8.617 12.641 16.267 12.645h35.773c8.059 0 14.689 6.631 14.689 14.689s-6.63 14.689-14.689 14.689h-35.773c-27.811 0-50.36-22.719-50.36-54.561 0-27.941 22.558-46.165 50.381-46.165 27.813 0 50.369 18.788 50.369 41.97h-.021zM256.203 42.19c-9.207 0-16.783 7.576-16.783 16.784V92.55c-.122 9.125-7.662 16.566-16.788 16.566-9.127 0-16.667-7.441-16.789-16.566V58.977l.002-.224c0-9.208-7.578-16.786-16.787-16.786s-16.787 7.578-16.787 16.786l.002.224V92.55c0 9.209-7.578 16.787-16.787 16.787S138.7 101.759 138.7 92.55V58.977c0-9.208-7.578-16.786-16.786-16.786-9.208 0-16.785 7.578-16.785 16.786V92.55c0 27.817 22.547 50.366 50.363 50.366 12.921 0 24.664-4.905 33.58-12.9 8.912 7.992 20.658 12.9 33.576 12.9 27.816 0 50.36-22.549 50.36-50.366V58.977c-.016-9.21-7.595-16.781-16.805-16.787zm46.165 0h-.003c-9.205 0-16.78 7.575-16.78 16.781v67.158c0 9.273 7.508 16.787 16.783 16.787 9.276 0 16.787-7.514 16.787-16.787V58.977c0-9.209-7.578-16.787-16.787-16.787zm272.803 37.777c0-7.728-7.505-13.989-16.78-13.989-9.275 0-16.79 6.261-16.79 13.989h33.57zM302.368.22c9.265 0 16.787 7.522 16.787 16.787 0 9.265-7.522 16.787-16.787 16.787-9.264 0-16.786-7.522-16.786-16.787 0-9.265 7.522-16.787 16.786-16.787z" fill-rule="nonzero"/></svg>