<svg viewBox="0 0 2500 801" xmlns="http://www.w3.org/2000/svg" fill-rule="evenodd" clip-rule="evenodd" stroke-linejoin="round" stroke-miterlimit="2"><path d="M1901.79 59.926c0-28.713-23.628-52.341-52.341-52.341-28.714 0-52.341 23.628-52.341 52.341v233.747a182.637 182.637 0 00-133.767-53.451c-138.085 0-250.073 124.975-250.073 279.158 0 154.182 111.962 279.131 250.073 279.131a184.966 184.966 0 00134.728-54.124c4.687 24.576 26.378 42.521 51.397 42.521 28.704 0 52.324-23.619 52.324-52.323V59.926zm-546.683 0c0-28.713-23.628-52.341-52.341-52.341s-52.341 23.628-52.341 52.341v233.747a182.66 182.66 0 00-133.767-53.451c-138.084 0-250.081 124.975-250.081 279.158 0 154.182 111.962 279.131 250.081 279.131a184.946 184.946 0 00134.72-54.124c4.706 24.56 26.39 42.484 51.397 42.484 28.708 0 52.332-23.624 52.332-52.333V59.926zM758.758 554.277c45.297 0 71.664-33.875 69.706-67.207a223.226 223.226 0 00-4.667-37.51c-27.774-120.361-125.674-209.338-242.198-209.338-138.084 0-250.081 124.975-250.081 279.158 0 154.182 111.971 279.131 250.081 279.131 86.521 0 148.31-31.506 193.283-80.893a53.798 53.798 0 0014.121-36.325 53.824 53.824 0 00-22.965-44.078c-21.718-15.094-49.212-10.007-69.418 7.052-19.288 16.282-56.134 49.606-115.021 49.606-70.335 0-129.004-59.944-142.454-139.579l319.613-.017zM337.365 294.329c-.018-25.446-18.599-47.372-43.698-51.563-76.217-11.493-147.461 16.963-188.904 68.482v-7.022c0-28.73-23.641-52.371-52.372-52.371-28.718 0-52.354 23.622-52.371 52.341v428.323c-.408 28.023 21.184 51.894 49.107 54.29 1.077.066 2.155.1 3.234.1 28.713 0 52.341-23.628 52.341-52.341V513.603c0-97.778 73.534-178.059 174.44-167.152 3.436.381 6.903.381 10.339 0 26.93-2.293 47.878-25.095 47.884-52.122zm2063 440.235V344.93h46.529c24.767.318 45.852-18.752 48.015-43.426a46.29 46.29 0 00.103-3.094c0-25.526-21.001-46.532-46.527-46.538h-48.12v-73.866c.361-27.869-21.098-51.596-48.863-54.028a52.377 52.377 0 00-3.478-.116c-28.713 0-52.341 23.628-52.341 52.341v75.608h-43.339c-24.773-.322-45.864 18.754-48.024 43.435a46.97 46.97 0 00-.103 3.094c0 25.525 21.003 46.528 46.528 46.529h44.938v389.695c0 28.713 23.628 52.341 52.341 52.341s52.341-23.628 52.341-52.341zm-265.934-383.848c0-28.713-23.628-52.341-52.341-52.341-28.714 0-52.341 23.628-52.341 52.341v383.848c0 28.713 23.627 52.341 52.341 52.341 28.713 0 52.341-23.628 52.341-52.341V350.716zm-1017.77 343.139c-80.298 0-145.399-78.122-145.399-174.475s65.101-174.45 145.399-174.45c80.299 0 145.391 78.114 145.391 174.476s-65.092 174.449-145.391 174.449zm546.683 0c-80.299 0-145.391-78.122-145.391-174.475s65.092-174.45 145.391-174.45c80.298 0 145.399 78.114 145.399 174.476s-65.092 174.449-145.399 174.449zM581.604 344.93c63.301 0 117.11 48.557 137.097 116.315H444.516c19.961-67.784 73.762-116.315 137.088-116.315zm1500.49-279.183c51.355 0 93.049 41.694 93.049 93.049 0 51.356-41.694 93.05-93.049 93.05-51.356 0-93.05-41.694-93.05-93.05 0-51.355 41.694-93.049 93.05-93.049z" fill-rule="nonzero"/></svg>