<svg viewBox="0 0 1200 287" xmlns="http://www.w3.org/2000/svg" fill-rule="evenodd" clip-rule="evenodd" stroke-linejoin="round" stroke-miterlimit="2"><path d="M143.394 0C64.2 0 0 64.2 0 143.394c0 60.748 37.796 112.68 91.137 133.574-1.253-11.346-2.386-28.794.498-41.179 2.605-11.192 16.814-71.276 16.814-71.276s-4.289-8.59-4.289-21.29c0-19.939 11.557-34.824 25.946-34.824 12.234 0 18.143 9.184 18.143 20.198 0 12.303-7.833 30.698-11.875 47.744-3.378 14.272 7.157 25.911 21.234 25.911 25.486 0 45.077-26.872 45.077-65.663 0-34.333-24.67-58.338-59.897-58.338-40.8 0-64.749 30.602-64.749 62.229 0 12.324 4.748 25.54 10.672 32.724 1.172 1.42 1.344 2.663.995 4.113-1.089 4.529-3.508 14.268-3.983 16.262-.625 2.625-2.078 3.182-4.796 1.917-17.908-8.336-29.106-34.52-29.106-55.551 0-45.233 32.866-86.774 94.746-86.774 49.743 0 88.4 35.446 88.4 82.817 0 49.419-31.16 89.191-74.409 89.191-14.53 0-28.19-7.549-32.866-16.465 0 0-7.19 27.378-8.933 34.087-3.237 12.455-11.977 28.067-17.822 37.592 13.416 4.154 27.674 6.394 42.457 6.394 79.194 0 143.394-64.2 143.394-143.393C286.788 64.2 222.588 0 143.394 0zm944.047 146.423c-15.146-2.795-28.66-3.96-28.66-12.348 0-7.457 7.224-10.951 16.543-10.951 10.485 0 17.709 3.261 19.107 13.98h34.951c-1.864-23.533-20.038-38.213-53.823-38.213-28.195 0-51.495 13.048-51.495 38.213 0 27.959 22.135 33.552 42.874 37.048 15.843 2.796 30.289 3.961 30.289 14.678 0 7.69-7.223 11.884-18.64 11.884-11.454 0-19.03-4.846-21.353-14.679h-36.19c2.663 24.524 24.19 39.377 57.776 39.377 31.223 0 54.29-13.514 54.29-39.61 0-30.524-24.698-35.883-45.669-39.379zm-125.368 51.494c-15.612 0-24.465-10.019-26.796-26.096h85.746c.233-24.232-6.756-44.97-20.97-58.017-10.253-9.32-23.767-14.913-40.777-14.913-36.348 0-61.279 27.261-61.279 62.912 0 36.114 24.232 63.377 63.609 63.377 15.145 0 27.262-3.961 37.282-10.952 10.485-7.223 17.475-17.475 20.037-28.193h-37.047c-3.263 7.456-9.786 11.882-19.805 11.882zm-262.159-36.115c0-35.649 24.931-62.91 61.28-62.91 17.008 0 30.523 5.591 40.775 14.911 14.214 13.049 21.203 33.786 20.97 58.019h-85.744c2.328 16.076 11.183 26.096 26.795 26.096 10.018 0 16.543-4.427 19.804-11.883h37.048c-2.563 10.718-9.553 20.97-20.039 28.194-10.018 6.989-22.134 10.95-37.28 10.95-39.378 0-63.609-27.261-63.609-63.377zM1200 193.553c-1.76.069-4.122.172-6.293.172-8.157 0-13.282-2.331-13.282-11.651v-55.922H1200v-23.766h-19.575V64.639h-37.048v37.747h-11.657v23.766h11.657v64.077c0 25.631 15.845 32.853 37.981 32.853 8.445 0 14.829-.632 18.642-1.376v-28.153zm-498.233.054a129.39 129.39 0 01-4.898.117c-8.154 0-13.281-2.33-13.281-11.651v-55.921h18.179v-23.766h-18.179V64.639h-37.047v37.747h-12.354v23.766h12.354v64.077c0 25.631 15.843 32.853 37.979 32.853 7.49 0 13.354-.498 17.247-1.13v-28.345zm-229.306-91.221h37.981v119.299h-37.981V102.386zm45.911 0h36.582v16.311h.698c8.855-12.816 20.272-19.805 36.816-19.805 26.096 0 41.474 18.64 41.474 45.202v77.591h-37.979v-69.901c0-12.583-6.291-21.205-18.641-21.205-12.581 0-20.97 10.486-20.97 25.165v65.941h-37.98V102.386zm-179.447-47.3h65.954c20.27 0 35.183 5.592 45.435 15.379 10.719 10.018 16.777 24.232 16.777 41.008 0 31.921-22.136 54.524-56.388 54.524h-33.327v55.687h-38.451V55.086zm562.135 45.577c-1.084-.097-2.326-.141-3.78-.141-14.447 0-24.232 6.291-32.621 20.504h-.698v-18.64h-36.349v119.298h37.979v-53.591c0-24.831 13.751-36.337 35.469-34.33v-33.1zm58.916 25.256c12.349 0 21.203 9.087 22.601 23.302h-47.066c2.562-14.215 10.019-23.302 24.465-23.302zM784.494 149.22c-1.397-14.213-10.253-23.301-22.602-23.301-14.446 0-21.902 9.088-24.466 23.301h47.068zm-377.991-15.844c14.913 0 23.301-8.854 23.301-22.137 0-13.28-8.622-21.435-23.301-21.435h-29.127v43.572h29.127zm107.73-62.907c0-12.583-10.201-22.782-22.782-22.782-12.582 0-22.783 10.199-22.783 22.782 0 12.582 10.201 22.781 22.783 22.781 12.581 0 22.782-10.199 22.782-22.781z" fill-rule="nonzero"/></svg>